<svg xmlns="http://www.w3.org/2000/svg" xmlns:xlink="http://www.w3.org/1999/xlink" contentStyleType="text/css" data-diagram-type="DESCRIPTION" height="2192px" preserveAspectRatio="none" style="width:444px;height:2192px;background:#FFFFFF;" version="1.1" viewBox="0 0 444 2192" width="444px" zoomAndPan="magnify"><?plantuml 1.2026.3beta6?><defs/><g><!--cluster Prontuario Eletronico Senac--><g class="cluster" data-qualified-name="Prontuario Eletronico Senac" data-source-line="12" id="ent0007"><rect fill="none" height="2171" rx="2.5" ry="2.5" style="stroke:#181818;stroke-width:1;" width="305.58" x="125.08" y="7"/><text fill="#000000" font-family="sans-serif" font-size="14" font-weight="700" lengthAdjust="spacing" textLength="220.9717" x="167.3842" y="21.9951">Prontuario Eletronico Senac</text></g><!--cluster Autenticacao--><g class="cluster" data-qualified-name="Prontuario Eletronico Senac.Autenticacao" data-source-line="13" id="ent0008"><rect fill="none" height="339" rx="2.5" ry="2.5" style="stroke:#181818;stroke-width:1;" width="162.66" x="196.54" y="1471"/><text fill="#000000" font-family="sans-serif" font-size="14" font-weight="700" lengthAdjust="spacing" textLength="103.5576" x="226.0912" y="1485.9951">Autenticacao</text></g><!--cluster Pacientes e Prontuario--><g class="cluster" data-qualified-name="Prontuario Eletronico Senac.Pacientes e Prontuario" data-source-line="20" id="ent0014"><rect fill="none" height="367" rx="2.5" ry="2.5" style="stroke:#181818;stroke-width:1;" width="204.64" x="175.55" y="756"/><text fill="#000000" font-family="sans-serif" font-size="14" font-weight="700" lengthAdjust="spacing" textLength="180.209" x="187.7655" y="770.9951">Pacientes e Prontuario</text></g><!--cluster Prescricoes--><g class="cluster" data-qualified-name="Prontuario Eletronico Senac.Prescricoes" data-source-line="27" id="ent0020"><rect fill="none" height="320" rx="2.5" ry="2.5" style="stroke:#181818;stroke-width:1;" width="257.58" x="149.08" y="1834"/><text fill="#000000" font-family="sans-serif" font-size="14" font-weight="700" lengthAdjust="spacing" textLength="90.7402" x="232.4999" y="1848.9951">Prescricoes</text></g><!--cluster Cuidados de Enfermagem--><g class="cluster" data-qualified-name="Prontuario Eletronico Senac.Cuidados de Enfermagem" data-source-line="33" id="ent0025"><rect fill="none" height="340" rx="2.5" ry="2.5" style="stroke:#181818;stroke-width:1;" width="243.8" x="155.97" y="392"/><text fill="#000000" font-family="sans-serif" font-size="14" font-weight="700" lengthAdjust="spacing" textLength="201.9063" x="176.9169" y="406.9951">Cuidados de Enfermagem</text></g><!--cluster Relatorios--><g class="cluster" data-qualified-name="Prontuario Eletronico Senac.Relatorios" data-source-line="39" id="ent0030"><rect fill="none" height="300" rx="2.5" ry="2.5" style="stroke:#181818;stroke-width:1;" width="242.48" x="156.63" y="1147"/><text fill="#000000" font-family="sans-serif" font-size="14" font-weight="700" lengthAdjust="spacing" textLength="80.4863" x="237.6268" y="1161.9951">Relatorios</text></g><!--cluster Configuracoes--><g class="cluster" data-qualified-name="Prontuario Eletronico Senac.Configuracoes" data-source-line="45" id="ent0035"><rect fill="none" height="318" rx="2.5" ry="2.5" style="stroke:#181818;stroke-width:1;" width="232.72" x="161.51" y="50"/><text fill="#000000" font-family="sans-serif" font-size="14" font-weight="700" lengthAdjust="spacing" textLength="112.834" x="221.453" y="64.9951">Configuracoes</text></g><!--entity UC01--><g class="entity" data-qualified-name="Prontuario Eletronico Senac.Autenticacao.UC01" data-source-line="14" id="ent0009"><ellipse cx="277.8695" cy="1585.0036" fill="#F1F1F1" rx="57.3795" ry="14.5236" style="stroke:#181818;stroke-width:0.5;"/><text fill="#000000" font-family="sans-serif" font-size="14" lengthAdjust="spacing" textLength="76.9043" x="239.4174" y="1589.6521">Fazer login</text></g><!--entity UC02--><g class="entity" data-qualified-name="Prontuario Eletronico Senac.Autenticacao.UC02" data-source-line="15" id="ent0010"><ellipse cx="277.8654" cy="1520.9951" fill="#F1F1F1" rx="62.6254" ry="14.9251" style="stroke:#181818;stroke-width:0.5;"/><text fill="#000000" font-family="sans-serif" font-size="14" lengthAdjust="spacing" textLength="87.0693" x="234.3308" y="1525.6435">Fazer logout</text></g><!--entity UC03--><g class="entity" data-qualified-name="Prontuario Eletronico Senac.Autenticacao.UC03" data-source-line="16" id="ent0011"><ellipse cx="277.8663" cy="1779.0013" fill="#F1F1F1" rx="61.8563" ry="14.7713" style="stroke:#181818;stroke-width:0.5;"/><text fill="#000000" font-family="sans-serif" font-size="14" lengthAdjust="spacing" textLength="84.9502" x="235.3912" y="1783.6497">Registrar-se</text></g><!--entity UC04--><g class="entity" data-qualified-name="Prontuario Eletronico Senac.Autenticacao.UC04" data-source-line="17" id="ent0012"><ellipse cx="277.8712" cy="1715.0002" fill="#F1F1F1" rx="60.7512" ry="14.5502" style="stroke:#181818;stroke-width:0.5;"/><text fill="#000000" font-family="sans-serif" font-size="14" lengthAdjust="spacing" textLength="81.8604" x="236.9411" y="1719.6487">Editar perfil</text></g><!--entity UC05--><g class="entity" data-qualified-name="Prontuario Eletronico Senac.Autenticacao.UC05" data-source-line="18" id="ent0013"><ellipse cx="277.8703" cy="1649.9961" fill="#F1F1F1" rx="65.3303" ry="15.4661" style="stroke:#181818;stroke-width:0.5;"/><text fill="#000000" font-family="sans-serif" font-size="14" lengthAdjust="spacing" textLength="94.3428" x="230.6989" y="1654.6445">Alterar senha</text></g><!--entity UC06--><g class="entity" data-qualified-name="Prontuario Eletronico Senac.Pacientes e Prontuario.UC06" data-source-line="21" id="ent0015"><ellipse cx="277.87" cy="1088.004" fill="#F1F1F1" rx="84.02" ry="19.204" style="stroke:#181818;stroke-width:0.5;"/><text fill="#000000" font-family="sans-serif" font-size="14" lengthAdjust="spacing" textLength="140.0615" x="207.8392" y="1092.6524">Visualizar pacientes</text></g><!--entity UC07--><g class="entity" data-qualified-name="Prontuario Eletronico Senac.Pacientes e Prontuario.UC07" data-source-line="22" id="ent0016"><ellipse cx="277.8702" cy="1014.004" fill="#F1F1F1" rx="86.3202" ry="19.664" style="stroke:#181818;stroke-width:0.5;"/><text fill="#000000" font-family="sans-serif" font-size="14" lengthAdjust="spacing" textLength="145.3594" x="205.1906" y="1018.6525">Visualizar prontuario</text></g><!--entity UC08--><g class="entity" data-qualified-name="Prontuario Eletronico Senac.Pacientes e Prontuario.UC08" data-source-line="23" id="ent0017"><ellipse cx="277.8719" cy="874.0004" fill="#F1F1F1" rx="67.0519" ry="15.8104" style="stroke:#181818;stroke-width:0.5;"/><text fill="#000000" font-family="sans-serif" font-size="14" lengthAdjust="spacing" textLength="98.8477" x="228.448" y="878.6488">Criar paciente</text></g><!--entity UC09--><g class="entity" data-qualified-name="Prontuario Eletronico Senac.Pacientes e Prontuario.UC09" data-source-line="24" id="ent0018"><ellipse cx="277.8735" cy="807.0027" fill="#F1F1F1" rx="70.0635" ry="16.4127" style="stroke:#181818;stroke-width:0.5;"/><text fill="#000000" font-family="sans-serif" font-size="14" lengthAdjust="spacing" textLength="106.5381" x="224.6045" y="811.6511">Editar paciente</text></g><!--entity UC10--><g class="entity" data-qualified-name="Prontuario Eletronico Senac.Pacientes e Prontuario.UC10" data-source-line="25" id="ent0019"><ellipse cx="277.8654" cy="941.9971" fill="#F1F1F1" rx="72.3854" ry="16.8771" style="stroke:#181818;stroke-width:0.5;"/><text fill="#000000" font-family="sans-serif" font-size="14" lengthAdjust="spacing" textLength="112.3281" x="221.7013" y="946.6455">Excluir paciente</text></g><!--entity UC11--><g class="entity" data-qualified-name="Prontuario Eletronico Senac.Prescricoes.UC11" data-source-line="28" id="ent0021"><ellipse cx="277.8749" cy="2121.005" fill="#F1F1F1" rx="71.8249" ry="16.765" style="stroke:#181818;stroke-width:0.5;"/><text fill="#000000" font-family="sans-serif" font-size="14" lengthAdjust="spacing" textLength="110.9404" x="222.4047" y="2125.6534">Criar prescricao</text></g><!--entity UC12--><g class="entity" data-qualified-name="Prontuario Eletronico Senac.Prescricoes.UC12" data-source-line="29" id="ent0022"><ellipse cx="277.8706" cy="2043.9981" fill="#F1F1F1" rx="112.7906" ry="24.9581" style="stroke:#181818;stroke-width:0.5;"/><text fill="#000000" font-family="sans-serif" font-size="14" lengthAdjust="spacing" textLength="203.9023" x="175.9194" y="2048.6465">Editar observacao prescricao</text></g><!--entity UC13--><g class="entity" data-qualified-name="Prontuario Eletronico Senac.Prescricoes.UC13" data-source-line="30" id="ent0023"><ellipse cx="277.8744" cy="1966.0029" fill="#F1F1F1" rx="77.3644" ry="17.8729" style="stroke:#181818;stroke-width:0.5;"/><text fill="#000000" font-family="sans-serif" font-size="14" lengthAdjust="spacing" textLength="124.4209" x="215.664" y="1970.6513">Excluir prescricao</text></g><!--entity UC14--><g class="entity" data-qualified-name="Prontuario Eletronico Senac.Prescricoes.UC14" data-source-line="31" id="ent0024"><ellipse cx="277.8729" cy="1890.9986" fill="#F1F1F1" rx="97.9429" ry="21.9886" style="stroke:#181818;stroke-width:0.5;"/><text fill="#000000" font-family="sans-serif" font-size="14" lengthAdjust="spacing" textLength="171.5137" x="192.1161" y="1895.647">Alterar status de horario</text></g><!--entity UC15--><g class="entity" data-qualified-name="Prontuario Eletronico Senac.Cuidados de Enfermagem.UC15" data-source-line="34" id="ent0026"><ellipse cx="277.8678" cy="451.0036" fill="#F1F1F1" rx="105.8678" ry="23.5736" style="stroke:#181818;stroke-width:0.5;"/><text fill="#000000" font-family="sans-serif" font-size="14" lengthAdjust="spacing" textLength="188.9111" x="183.4122" y="455.652">Registrar cuidado paciente</text></g><!--entity UC16--><g class="entity" data-qualified-name="Prontuario Eletronico Senac.Cuidados de Enfermagem.UC16" data-source-line="35" id="ent0027"><ellipse cx="277.8732" cy="613.9966" fill="#F1F1F1" rx="98.2332" ry="22.0466" style="stroke:#181818;stroke-width:0.5;"/><text fill="#000000" font-family="sans-serif" font-size="14" lengthAdjust="spacing" textLength="172.1563" x="191.7951" y="618.6451">Excluir cuidado paciente</text></g><!--entity UC17--><g class="entity" data-qualified-name="Prontuario Eletronico Senac.Cuidados de Enfermagem.UC17" data-source-line="36" id="ent0028"><ellipse cx="277.8657" cy="693.9971" fill="#F1F1F1" rx="100.3857" ry="22.4771" style="stroke:#181818;stroke-width:0.5;"/><text fill="#000000" font-family="sans-serif" font-size="14" lengthAdjust="spacing" textLength="176.9072" x="189.4121" y="698.6456">Alterar status de cuidado</text></g><!--entity UC18--><g class="entity" data-qualified-name="Prontuario Eletronico Senac.Cuidados de Enfermagem.UC18" data-source-line="37" id="ent0029"><ellipse cx="277.8692" cy="532.9998" fill="#F1F1F1" rx="105.8992" ry="23.5798" style="stroke:#181818;stroke-width:0.5;"/><text fill="#000000" font-family="sans-serif" font-size="14" lengthAdjust="spacing" textLength="188.9795" x="183.3794" y="537.6483">Gerenciar tipos de cuidado</text></g><!--entity UC19--><g class="entity" data-qualified-name="Prontuario Eletronico Senac.Relatorios.UC19" data-source-line="40" id="ent0031"><ellipse cx="277.8703" cy="1415.0021" fill="#F1F1F1" rx="66.4603" ry="15.6921" style="stroke:#181818;stroke-width:0.5;"/><text fill="#000000" font-family="sans-serif" font-size="14" lengthAdjust="spacing" textLength="97.3096" x="229.2155" y="1419.6505">Criar relatorio</text></g><!--entity UC20--><g class="entity" data-qualified-name="Prontuario Eletronico Senac.Relatorios.UC20" data-source-line="41" id="ent0032"><ellipse cx="277.8743" cy="1348.0009" fill="#F1F1F1" rx="69.4543" ry="16.2909" style="stroke:#181818;stroke-width:0.5;"/><text fill="#000000" font-family="sans-serif" font-size="14" lengthAdjust="spacing" textLength="105" x="225.3743" y="1352.6493">Editar relatorio</text></g><!--entity UC21--><g class="entity" data-qualified-name="Prontuario Eletronico Senac.Relatorios.UC21" data-source-line="42" id="ent0033"><ellipse cx="277.8743" cy="1280.0029" fill="#F1F1F1" rx="71.7643" ry="16.7529" style="stroke:#181818;stroke-width:0.5;"/><text fill="#000000" font-family="sans-serif" font-size="14" lengthAdjust="spacing" textLength="110.79" x="222.4793" y="1284.6513">Excluir relatorio</text></g><!--entity UC22--><g class="entity" data-qualified-name="Prontuario Eletronico Senac.Relatorios.UC22" data-source-line="43" id="ent0034"><ellipse cx="277.8704" cy="1204.9981" fill="#F1F1F1" rx="105.2404" ry="23.4481" style="stroke:#181818;stroke-width:0.5;"/><text fill="#000000" font-family="sans-serif" font-size="14" lengthAdjust="spacing" textLength="187.5439" x="184.0985" y="1209.6465">Ver relatorios por paciente</text></g><!--entity UC23--><g class="entity" data-qualified-name="Prontuario Eletronico Senac.Configuracoes.UC23" data-source-line="46" id="ent0036"><ellipse cx="277.8708" cy="330.0022" fill="#F1F1F1" rx="100.3608" ry="22.4722" style="stroke:#181818;stroke-width:0.5;"/><text fill="#000000" font-family="sans-serif" font-size="14" lengthAdjust="spacing" textLength="176.8525" x="189.4446" y="334.6506">Gerenciar medicamentos</text></g><!--entity UC24--><g class="entity" data-qualified-name="Prontuario Eletronico Senac.Configuracoes.UC24" data-source-line="47" id="ent0037"><ellipse cx="277.8717" cy="254.9963" fill="#F1F1F1" rx="77.4817" ry="17.8963" style="stroke:#181818;stroke-width:0.5;"/><text fill="#000000" font-family="sans-serif" font-size="14" lengthAdjust="spacing" textLength="124.7012" x="215.5211" y="259.6448">Gerenciar setores</text></g><!--entity UC25--><g class="entity" data-qualified-name="Prontuario Eletronico Senac.Configuracoes.UC25" data-source-line="48" id="ent0038"><ellipse cx="277.8662" cy="181.9952" fill="#F1F1F1" rx="86.9262" ry="19.7852" style="stroke:#181818;stroke-width:0.5;"/><text fill="#000000" font-family="sans-serif" font-size="14" lengthAdjust="spacing" textLength="146.7471" x="204.4926" y="186.6437">Excluir usuario aluno</text></g><!--entity UC26--><g class="entity" data-qualified-name="Prontuario Eletronico Senac.Configuracoes.UC26" data-source-line="49" id="ent0039"><ellipse cx="277.8732" cy="106.0046" fill="#F1F1F1" rx="95.3732" ry="21.4746" style="stroke:#181818;stroke-width:0.5;"/><text fill="#000000" font-family="sans-serif" font-size="14" lengthAdjust="spacing" textLength="165.8057" x="194.9704" y="110.6531">Deletar todos os alunos</text></g><!--entity aluno--><g class="entity" data-qualified-name="aluno" data-source-line="5" id="ent0002"><ellipse cx="55.54" cy="1530.85" fill="#F1F1F1" rx="16" ry="16" style="stroke:#181818;stroke-width:0.5;"/><path d="M55.54,1550.85 C59.54,1550.85 62.54,1550.85 66.54,1546.85 C74.54,1546.85 82.54,1554.85 82.54,1562.85 L82.54,1566.85 C82.54,1570.85 78.54,1574.85 74.54,1574.85 L36.54,1574.85 C32.54,1574.85 28.54,1570.85 28.54,1566.85 L28.54,1562.85 C28.54,1554.85 36.54,1546.85 44.54,1546.85 C48.54,1550.85 51.54,1550.85 55.54,1550.85" fill="#F1F1F1" style="stroke:#181818;stroke-width:0.5;"/><text fill="#000000" font-family="sans-serif" font-size="14" lengthAdjust="spacing" textLength="39.7783" x="35.6508" y="1588.3451">Aluno</text></g><!--entity docente--><g class="entity" data-qualified-name="docente" data-source-line="6" id="ent0003"><ellipse cx="55.5359" cy="551.85" fill="#F1F1F1" rx="16" ry="16" style="stroke:#181818;stroke-width:0.5;"/><path d="M55.5359,571.85 C59.5359,571.85 62.5359,571.85 66.5359,567.85 C74.5359,567.85 82.5359,575.85 82.5359,583.85 L82.5359,587.85 C82.5359,591.85 78.5359,595.85 74.5359,595.85 L36.5359,595.85 C32.5359,595.85 28.5359,591.85 28.5359,587.85 L28.5359,583.85 C28.5359,575.85 36.5359,567.85 44.5359,567.85 C48.5359,571.85 51.5359,571.85 55.5359,571.85" fill="#F1F1F1" style="stroke:#181818;stroke-width:0.5;"/><text fill="#000000" font-family="sans-serif" font-size="14" lengthAdjust="spacing" textLength="58.6318" x="26.22" y="609.3451">Docente</text></g><!--entity admin--><g class="entity" data-qualified-name="admin" data-source-line="7" id="ent0004"><ellipse cx="55.54" cy="241.85" fill="#F1F1F1" rx="16" ry="16" style="stroke:#181818;stroke-width:0.5;"/><path d="M55.54,261.85 C59.54,261.85 62.54,261.85 66.54,257.85 C74.54,257.85 82.54,265.85 82.54,273.85 L82.54,277.85 C82.54,281.85 78.54,285.85 74.54,285.85 L36.54,285.85 C32.54,285.85 28.54,281.85 28.54,277.85 L28.54,273.85 C28.54,265.85 36.54,257.85 44.54,257.85 C48.54,261.85 51.54,261.85 55.54,261.85" fill="#F1F1F1" style="stroke:#181818;stroke-width:0.5;"/><text fill="#000000" font-family="sans-serif" font-size="14" lengthAdjust="spacing" textLength="99.0801" x="6" y="299.3451">Administrador</text></g><!--link docente to aluno--><g class="link" data-entity-1="ent0003" data-entity-2="ent0002" data-link-type="extension" data-source-line="9" id="lnk5"><path d="M55.54,613.03 C55.54,913.44 55.54,1195.86 55.54,1496.28" fill="none" id="docente-to-aluno" style="stroke:#181818;stroke-width:1;"/><polygon fill="none" points="55.54,1514.28,61.54,1496.28,49.54,1496.28,55.54,1514.28" style="stroke:#181818;stroke-width:1;"/></g><!--link admin to docente--><g class="link" data-entity-1="ent0004" data-entity-2="ent0003" data-link-type="extension" data-source-line="10" id="lnk6"><path d="M55.54,302.9 C55.54,380.25 55.54,439.6 55.54,516.95" fill="none" id="admin-to-docente" style="stroke:#181818;stroke-width:1;"/><polygon fill="none" points="55.54,534.95,61.54,516.95,49.54,516.95,55.54,534.95" style="stroke:#181818;stroke-width:1;"/></g><!--link aluno to UC01--><g class="link" data-entity-1="ent0002" data-entity-2="ent0009" data-link-type="dependency" data-source-line="53" id="lnk40"><path d="M83.12,1556.86 C118.71,1562.03 176.6122,1570.4381 221.2522,1576.9181" fill="none" id="aluno-to-UC01" style="stroke:#181818;stroke-width:1;"/><polygon fill="#181818" points="227.19,1577.78,218.858,1572.5286,222.2419,1577.0617,217.7087,1580.4456,227.19,1577.78" style="stroke:#181818;stroke-width:1;"/></g><!--link aluno to UC02--><g class="link" data-entity-1="ent0002" data-entity-2="ent0010" data-link-type="dependency" data-source-line="54" id="lnk41"><path d="M83.12,1549.14 C117.8,1544.1 173.3523,1536.0322 217.7723,1529.5822" fill="none" id="aluno-to-UC02" style="stroke:#181818;stroke-width:1;"/><polygon fill="#181818" points="223.71,1528.72,214.2286,1526.0548,218.7619,1529.4385,215.3782,1533.9718,223.71,1528.72" style="stroke:#181818;stroke-width:1;"/></g><!--link aluno to UC03--><g class="link" data-entity-1="ent0002" data-entity-2="ent0011" data-link-type="dependency" data-source-line="55" id="lnk42"><path d="M57.47,1591.95 C60.72,1636.19 73.03,1707.34 117.08,1747 C143.78,1771.04 177.3313,1778.7323 210.3913,1780.7623" fill="none" id="aluno-to-UC03" style="stroke:#181818;stroke-width:1;"/><polygon fill="#181818" points="216.38,1781.13,207.6421,1776.5859,211.3894,1780.8236,207.1518,1784.5709,216.38,1781.13" style="stroke:#181818;stroke-width:1;"/></g><!--link aluno to UC04--><g class="link" data-entity-1="ent0002" data-entity-2="ent0012" data-link-type="dependency" data-source-line="56" id="lnk43"><path d="M64.64,1591.94 C72.83,1621.41 88.51,1660.53 117.08,1683 C145.1,1705.03 178.2682,1712.6629 210.7982,1715.2029" fill="none" id="aluno-to-UC04" style="stroke:#181818;stroke-width:1;"/><polygon fill="#181818" points="216.78,1715.67,208.1187,1710.9815,211.7952,1715.2808,207.4959,1718.9573,216.78,1715.67" style="stroke:#181818;stroke-width:1;"/></g><!--link aluno to UC05--><g class="link" data-entity-1="ent0002" data-entity-2="ent0013" data-link-type="dependency" data-source-line="57" id="lnk44"><path d="M83.5,1589.04 C93.02,1599.51 104.52,1610 117.08,1617 C146.65,1633.48 177.4837,1640.9593 208.3037,1645.1093" fill="none" id="aluno-to-UC05" style="stroke:#181818;stroke-width:1;"/><polygon fill="#181818" points="214.25,1645.91,205.8643,1640.7447,209.2947,1645.2428,204.7967,1648.6732,214.25,1645.91" style="stroke:#181818;stroke-width:1;"/></g><!--link aluno to UC06--><g class="link" data-entity-1="ent0002" data-entity-2="ent0015" data-link-type="dependency" data-source-line="58" id="lnk45"><path d="M58.13,1514.05 C62.39,1427.17 76.59,1220.85 117.08,1166 C141.47,1132.97 177.9351,1115.0686 212.8351,1103.6986" fill="none" id="aluno-to-UC06" style="stroke:#181818;stroke-width:1;"/><polygon fill="#181818" points="218.54,1101.84,208.7436,1100.8246,213.7859,1103.3888,211.2217,1108.4311,218.54,1101.84" style="stroke:#181818;stroke-width:1;"/></g><!--link aluno to UC07--><g class="link" data-entity-1="ent0002" data-entity-2="ent0016" data-link-type="dependency" data-source-line="59" id="lnk46"><path d="M58.7,1513.92 C65.23,1401.88 86.25,1085.33 117.08,1051 C135.91,1030.02 158.1671,1020.7585 185.6271,1016.0285" fill="none" id="aluno-to-UC07" style="stroke:#181818;stroke-width:1;"/><polygon fill="#181818" points="191.54,1015.01,181.9916,1012.5958,186.6126,1015.8588,183.3496,1020.4797,191.54,1015.01" style="stroke:#181818;stroke-width:1;"/></g><!--link aluno to UC11--><g class="link" data-entity-1="ent0002" data-entity-2="ent0021" data-link-type="dependency" data-source-line="60" id="lnk47"><path d="M58.38,1591.99 C64.24,1708.68 84.05,2049.4 117.08,2086 C139.34,2110.67 168.6561,2119.5414 200.4161,2122.5114" fill="none" id="aluno-to-UC11" style="stroke:#181818;stroke-width:1;"/><polygon fill="#181818" points="206.39,2123.07,197.8015,2118.2494,201.4117,2122.6045,197.0567,2126.2147,206.39,2123.07" style="stroke:#181818;stroke-width:1;"/></g><!--link aluno to UC12--><g class="link" data-entity-1="ent0002" data-entity-2="ent0022" data-link-type="dependency" data-source-line="61" id="lnk48"><path d="M56.47,1592.06 C57.1,1689.65 63.97,1940.58 117.08,2001 C131.59,2017.51 145.973,2026.2007 167.033,2032.7807" fill="none" id="aluno-to-UC12" style="stroke:#181818;stroke-width:1;"/><polygon fill="#181818" points="172.76,2034.57,165.3624,2028.068,167.9875,2033.0789,162.9766,2035.704,172.76,2034.57" style="stroke:#181818;stroke-width:1;"/></g><!--link aluno to UC13--><g class="link" data-entity-1="ent0002" data-entity-2="ent0023" data-link-type="dependency" data-source-line="62" id="lnk49"><path d="M57.44,1591.97 C60.24,1678.25 71.63,1881.63 117.08,1930 C138.3,1952.59 164.4704,1961.6937 194.3604,1965.5937" fill="none" id="aluno-to-UC13" style="stroke:#181818;stroke-width:1;"/><polygon fill="#181818" points="200.31,1966.37,191.9032,1961.2392,195.352,1965.7231,190.8681,1969.1719,200.31,1966.37" style="stroke:#181818;stroke-width:1;"/></g><!--link aluno to UC14--><g class="link" data-entity-1="ent0002" data-entity-2="ent0024" data-link-type="dependency" data-source-line="63" id="lnk50"><path d="M55.92,1591.72 C57.02,1646.11 66.49,1745.69 117.08,1810 C141.6,1841.17 175.7011,1859.3028 209.4111,1871.7428" fill="none" id="aluno-to-UC14" style="stroke:#181818;stroke-width:1;"/><polygon fill="#181818" points="215.04,1873.82,207.9814,1866.9515,210.3492,1872.089,205.2117,1874.4568,215.04,1873.82" style="stroke:#181818;stroke-width:1;"/></g><!--link aluno to UC17--><g class="link" data-entity-1="ent0002" data-entity-2="ent0028" data-link-type="dependency" data-source-line="64" id="lnk51"><path d="M57.35,1514.09 C60.77,1365.19 75.72,836.82 117.08,775 C138.44,743.08 170.7369,725.1386 204.2869,713.0186" fill="none" id="aluno-to-UC17" style="stroke:#181818;stroke-width:1;"/><polygon fill="#181818" points="209.93,710.98,200.1063,710.2758,205.2274,712.6788,202.8244,717.7999,209.93,710.98" style="stroke:#181818;stroke-width:1;"/></g><!--link aluno to UC19--><g class="link" data-entity-1="ent0002" data-entity-2="ent0031" data-link-type="dependency" data-source-line="65" id="lnk52"><path d="M83.45,1520.53 C93.3,1509.93 105,1498.66 117.08,1490 C155.43,1462.5 199.8598,1443.0675 233.6398,1430.2575" fill="none" id="aluno-to-UC19" style="stroke:#181818;stroke-width:1;"/><polygon fill="#181818" points="239.25,1428.13,229.4164,1427.5811,234.5749,1429.9029,232.2531,1435.0613,239.25,1428.13" style="stroke:#181818;stroke-width:1;"/></g><!--link aluno to UC20--><g class="link" data-entity-1="ent0002" data-entity-2="ent0032" data-link-type="dependency" data-source-line="66" id="lnk53"><path d="M59.57,1514.01 C64.76,1474.82 78.85,1415.54 117.08,1382 C141.81,1360.3 170.9751,1351.938 201.9951,1348.568" fill="none" id="aluno-to-UC20" style="stroke:#181818;stroke-width:1;"/><polygon fill="#181818" points="207.96,1347.92,198.5806,1344.9154,202.9892,1348.46,199.4447,1352.8686,207.96,1347.92" style="stroke:#181818;stroke-width:1;"/></g><!--link aluno to UC21--><g class="link" data-entity-1="ent0002" data-entity-2="ent0033" data-link-type="dependency" data-source-line="67" id="lnk54"><path d="M61.41,1513.89 C69.74,1453.43 88.63,1341.38 117.08,1314 C140.48,1291.48 168.9433,1282.941 199.8633,1279.671" fill="none" id="aluno-to-UC21" style="stroke:#181818;stroke-width:1;"/><polygon fill="#181818" points="205.83,1279.04,196.4592,1276.0087,200.8577,1279.5659,197.3006,1283.9643,205.83,1279.04" style="stroke:#181818;stroke-width:1;"/></g><!--link docente to UC08--><g class="link" data-entity-1="ent0003" data-entity-2="ent0017" data-link-type="dependency" data-source-line="69" id="lnk55"><path d="M60.25,613.09 C67.34,679.35 85.06,809.59 117.08,841 C141.65,865.1 172.907,873.3087 205.257,875.7487" fill="none" id="docente-to-UC08" style="stroke:#181818;stroke-width:1;"/><polygon fill="#181818" points="211.24,876.2,202.5663,871.5344,206.2542,875.8239,201.9646,879.5118,211.24,876.2" style="stroke:#181818;stroke-width:1;"/></g><!--link docente to UC09--><g class="link" data-entity-1="ent0003" data-entity-2="ent0018" data-link-type="dependency" data-source-line="70" id="lnk56"><path d="M62.97,613.14 C70.53,648.09 86.18,698.76 117.08,732 C147.02,764.21 187.877,782.0681 223.037,793.1381" fill="none" id="docente-to-UC09" style="stroke:#181818;stroke-width:1;"/><polygon fill="#181818" points="228.76,794.94,221.3767,788.4218,223.9908,793.4384,218.9742,796.0525,228.76,794.94" style="stroke:#181818;stroke-width:1;"/></g><!--link docente to UC10--><g class="link" data-entity-1="ent0003" data-entity-2="ent0019" data-link-type="dependency" data-source-line="71" id="lnk57"><path d="M58.33,612.87 C62.78,691.49 76.99,865.45 117.08,907 C139.76,930.5 168.3329,939.3223 199.5129,942.6023" fill="none" id="docente-to-UC10" style="stroke:#181818;stroke-width:1;"/><polygon fill="#181818" points="205.48,943.23,196.9479,938.3104,200.5074,942.7069,196.1109,946.2665,205.48,943.23" style="stroke:#181818;stroke-width:1;"/></g><!--link docente to UC15--><g class="link" data-entity-1="ent0003" data-entity-2="ent0026" data-link-type="dependency" data-source-line="72" id="lnk58"><path d="M77.4,535.02 C87.49,519.55 100.94,502.88 117.08,492 C137.51,478.24 156.4255,470.5705 180.2655,464.5005" fill="none" id="docente-to-UC15" style="stroke:#181818;stroke-width:1;"/><polygon fill="#181818" points="186.08,463.02,176.3713,461.3644,181.2346,464.2537,178.3452,469.117,186.08,463.02" style="stroke:#181818;stroke-width:1;"/></g><!--link docente to UC16--><g class="link" data-entity-1="ent0003" data-entity-2="ent0027" data-link-type="dependency" data-source-line="73" id="lnk59"><path d="M85.34,579.23 C114.51,584.52 154.9464,591.869 194.7464,599.089" fill="none" id="docente-to-UC16" style="stroke:#181818;stroke-width:1;"/><polygon fill="#181818" points="200.65,600.16,192.5085,594.6178,195.7303,599.2675,191.0806,602.4893,200.65,600.16" style="stroke:#181818;stroke-width:1;"/></g><!--link docente to UC18--><g class="link" data-entity-1="ent0003" data-entity-2="ent0029" data-link-type="dependency" data-source-line="74" id="lnk60"><path d="M85.34,568.64 C113.22,563.45 150.9112,556.4371 189.4612,549.2671" fill="none" id="docente-to-UC18" style="stroke:#181818;stroke-width:1;"/><polygon fill="#181818" points="195.36,548.17,185.7803,545.8831,190.4443,549.0843,187.2432,553.7483,195.36,548.17" style="stroke:#181818;stroke-width:1;"/></g><!--link docente to UC22--><g class="link" data-entity-1="ent0003" data-entity-2="ent0034" data-link-type="dependency" data-source-line="75" id="lnk61"><path d="M56.17,612.78 C55.81,723.77 59.96,1040.09 117.08,1123 C138.66,1154.33 170.3433,1172.3099 203.4833,1184.7599" fill="none" id="docente-to-UC22" style="stroke:#181818;stroke-width:1;"/><polygon fill="#181818" points="209.1,1186.87,202.0816,1179.9604,204.4194,1185.1116,199.2682,1187.4494,209.1,1186.87" style="stroke:#181818;stroke-width:1;"/></g><!--link docente to UC23--><g class="link" data-entity-1="ent0003" data-entity-2="ent0036" data-link-type="dependency" data-source-line="76" id="lnk62"><path d="M62.68,534.9 C70.1,498.98 85.72,446.14 117.08,411 C143.59,381.3 177.9407,363.206 211.2607,350.376" fill="none" id="docente-to-UC23" style="stroke:#181818;stroke-width:1;"/><polygon fill="#181818" points="216.86,348.22,207.0238,347.7212,212.194,350.0167,209.8985,355.1869,216.86,348.22" style="stroke:#181818;stroke-width:1;"/></g><!--link docente to UC24--><g class="link" data-entity-1="ent0003" data-entity-2="ent0037" data-link-type="dependency" data-source-line="77" id="lnk63"><path d="M63.68,535.09 C77.75,459.34 108.4,298.72 117.08,290 C138.71,268.25 164.5805,259.3969 194.1405,255.5369" fill="none" id="docente-to-UC24" style="stroke:#181818;stroke-width:1;"/><polygon fill="#181818" points="200.09,254.76,190.6478,251.959,195.1321,255.4074,191.6837,259.8917,200.09,254.76" style="stroke:#181818;stroke-width:1;"/></g><!--link docente to UC25--><g class="link" data-entity-1="ent0003" data-entity-2="ent0038" data-link-type="dependency" data-source-line="78" id="lnk64"><path d="M64.87,534.98 C75.28,485.25 93.19,396.53 105.08,320 C108.52,297.88 102.18,236.7 117.08,220 C135.78,199.04 157.8352,189.6448 185.1752,184.7148" fill="none" id="docente-to-UC25" style="stroke:#181818;stroke-width:1;"/><polygon fill="#181818" points="191.08,183.65,181.513,181.3106,186.1594,184.5373,182.9327,189.1837,191.08,183.65" style="stroke:#181818;stroke-width:1;"/></g><!--link admin to UC26--><g class="link" data-entity-1="ent0004" data-entity-2="ent0039" data-link-type="dependency" data-source-line="80" id="lnk65"><path d="M66.99,224.97 C76.03,198.61 91.73,165.07 117.08,145 C137.34,128.96 157.3883,120.7056 182.4183,115.0356" fill="none" id="admin-to-UC26" style="stroke:#181818;stroke-width:1;"/><polygon fill="#181818" points="188.27,113.71,178.6087,111.7972,183.3936,114.8147,180.3761,119.5995,188.27,113.71" style="stroke:#181818;stroke-width:1;"/></g><?plantuml-src XPLBRwCm483l_8fHxf42IMXogLIbsRrMhRRtMJCXLi6ERBFRn_Q_hmqnnGRK6pF-vkKP3nMT31W9YfTd0mLNn0oN8j4lN5nGOGt8Z5HFvgqYmB-aPKs3mmko5oofEtQsACgAagGrWiLTrGYv0DI0xikhxoKZOQWzABhltgAekU3QA2oawYoT9ack72p_tNfdxg2LlO-apm0M3qeAqw3Y4euL6Ijn9k691B85V2JWKxSX6sEjEKE6iZi2Q3GnrFRm1xwJWagMNBJP_3giqXb2DiOZMOWyKjcMf9QQFB8EaMF13Igua3hnoZERaBch35ade4cSqJDRotmEotb0njrjQ23ukeHHOSzSDrZnTnVKMtYV-JmwSDYnDo5xK7pWqKExwM8ZQXzHhwng-0XBLwEA5MccR7jT1H-J-Lm9z6cdwMH6yhSczSSDmeH9DfFU25pFjCsWQUp04vob6bnXkeaBEZIyiFFViaTn8bLRTJsghHyhO9t1wAgsqodFuVbtYLyDFH_r_YSf4ipTj-4NEMMmYojzf0hjk-TohdFA0zx5Vh9nCPQjfYiVST4SFDE0qN2He_7Bib6tf3Znib4uEO1Vbr9JOQUajhwaVsdPUWxMP5FeNsIscIwdqTs6mtxFMZPg-ZtPzUTw8jr4oUigxZtdRJcVTcKxDIoNjzsE2yGi5DUXk0d5RIZceNWJY6aOA0q3fM6WD0oKHgxsWMWd813JmI-aosGNA_QHmcwQIB6D5NciY9tQSOaKwrYnYHNRnF_REZd_3m00?></g></svg>